<svg xmlns="http://www.w3.org/2000/svg" viewBox="0 0 586 154"><title>logo</title><rect x="10" y="82" width="62" height="62" style="fill:#6aaa64"/><path d="M49.43,117.5469a6.0528,6.0528,0,0,1-2.1328,4.9843q-2.1328,1.7344-6.2891,1.7344a12.0836,12.0836,0,0,1-4.9922-.9531,7.79,7.79,0,0,1-3.4453-3.0781l3.3906-2.5938a7.6326,7.6326,0,0,0,1.4219,1.5938,5.0027,5.0027,0,0,0,1.5938.8281,6.9232,6.9232,0,0,0,2.125.2969,5.3658,5.3658,0,0,0,2.8046-.6172,2.0571,2.0571,0,0,0,1.0079-1.8828,1.9963,1.9963,0,0,0-.3516-1.2032,2.8418,2.8418,0,0,0-1.0547-.8359,14.0476,14.0476,0,0,0-2.4375-.8047q-1.6875-.4526-3.18-.914a9.6518,9.6518,0,0,1-2.5781-1.1954,5.401,5.401,0,0,1-1.7109-1.8437,5.637,5.637,0,0,1-.625-2.7969,5.904,5.904,0,0,1,2.0781-4.8047,9.0849,9.0849,0,0,1,5.9531-1.7265q5.609,0,7.9375,3.8437l-3.3594,2.625a5.6118,5.6118,0,0,0-2-1.9687,5.5265,5.5265,0,0,0-2.6406-.5938,4.9492,4.9492,0,0,0-2.4922.5547,1.8687,1.8687,0,0,0-.9609,1.7422,1.744,1.744,0,0,0,1,1.6016,14.4994,14.4994,0,0,0,3.4844,1.1171q1.3747.36,2.7187.7735a8.6194,8.6194,0,0,1,2.3985,1.1484A5.4621,5.4621,0,0,1,48.7891,114.5,6.3927,6.3927,0,0,1,49.43,117.5469Z" style="fill:#fff"/><rect x="82" y="82" width="62" height="62" style="fill:#6aaa64"/><path d="M115.2031,106.2188v17.5937h-4.4062V106.2188h-6.6563v-4.0313h17.7188v4.0313Z" style="fill:#fff"/><rect x="154" y="82" width="62" height="62" style="fill:#6aaa64"/><path d="M177.9766,123.8125v-21.625h14.0468v3.8906h-9.6406v4.6094h8.125v3.9063h-8.125v5.1874h9.6406v4.0313Z" style="fill:#fff"/><rect x="226" y="82" width="62" height="62" style="fill:#6aaa64"/><path d="M250.25,123.8125v-21.625h4.4062v17.5937H263.75v4.0313Z" style="fill:#fff"/><rect x="298" y="82" width="62" height="62" style="fill:#6aaa64"/><path d="M337.5156,113a15.3668,15.3668,0,0,1-1.0781,6.2812,6.88,6.88,0,0,1-3.25,3.4532,14.0194,14.0194,0,0,1-6.1094,1.0781h-6.5937v-21.625h6.5312a13.9545,13.9545,0,0,1,6.086,1.1094,6.9672,6.9672,0,0,1,3.3359,3.4609A15.1528,15.1528,0,0,1,337.5156,113Zm-4.5468-.0312a11.8741,11.8741,0,0,0-.5547-4.1954,3.5206,3.5206,0,0,0-1.8829-1.9609,10.0751,10.0751,0,0,0-3.9374-.5937h-1.6876v13.5624h1.6876a9.8846,9.8846,0,0,0,3.93-.6015,3.57,3.57,0,0,0,1.8828-2.0078A11.9258,11.9258,0,0,0,332.9688,112.9688Z" style="fill:#fff"/><rect x="370" y="82" width="62" height="62" style="fill:#6aaa64"/><path d="M404.5547,123.8125l-5.5156-8.1875h-2.2344v8.1875h-4.4063v-21.625h7.8594q4.172,0,6.1016,1.5t1.93,4.9219a7.4791,7.4791,0,0,1-1.1641,4.4062,5.2038,5.2038,0,0,1-3.3047,2.0938l5.7813,8.7031Zm-.7344-15.0156a2.5046,2.5046,0,0,0-.8359-2.2188,5.1113,5.1113,0,0,0-2.7578-.5625h-3.4219v5.7656h3.2344A7.176,7.176,0,0,0,402.32,111.5a2.0683,2.0683,0,0,0,1.1485-.875A3.692,3.692,0,0,0,403.82,108.7969Z" style="fill:#fff"/><rect x="442" y="82" width="62" height="62" style="fill:#6aaa64"/><path d="M482.3125,113q0,5.6411-2.3828,8.4531T473,124.2656q-4.7973,0-7.0547-2.9609T463.6875,113q0-5.3745,2.2578-8.32T473,101.7344q4.8282,0,7.07,2.9453T482.3125,113Zm-4.5469,0a11.033,11.033,0,0,0-1.0859-5.6016,4.73,4.73,0,0,0-7.3594,0A11.0224,11.0224,0,0,0,468.2344,113a10.8982,10.8982,0,0,0,1.1015,5.6016,4.714,4.714,0,0,0,7.3438,0A11.033,11.033,0,0,0,477.7656,113Z" style="fill:#fff"/><rect x="514" y="82" width="62" height="62" style="fill:#6aaa64"/><path d="M553.0547,123.8125h-4.5156l-3.625-14.2969-3.6407,14.2969H536.82l-5.4687-21.625h4.3906l3.4531,14.1094,3.5781-14.1094h4.3594l3.6094,14.2031,3.5469-14.2031h4.3593Z" style="fill:#fff"/><rect x="10" y="10" width="62" height="62" style="fill:#6aaa64"/><path d="M49.43,45.5469a6.0528,6.0528,0,0,1-2.1328,4.9843q-2.1328,1.7345-6.2891,1.7344a12.0836,12.0836,0,0,1-4.9922-.9531A7.79,7.79,0,0,1,32.57,48.2344l3.3906-2.5938a7.6326,7.6326,0,0,0,1.4219,1.5938,5.0027,5.0027,0,0,0,1.5938.8281,6.9232,6.9232,0,0,0,2.125.2969,5.3658,5.3658,0,0,0,2.8046-.6172,2.0571,2.0571,0,0,0,1.0079-1.8828,1.9963,1.9963,0,0,0-.3516-1.2032,2.8418,2.8418,0,0,0-1.0547-.8359,14.0476,14.0476,0,0,0-2.4375-.8047q-1.6875-.4525-3.18-.914a9.6518,9.6518,0,0,1-2.5781-1.1954,5.401,5.401,0,0,1-1.7109-1.8437,5.637,5.637,0,0,1-.625-2.7969,5.904,5.904,0,0,1,2.0781-4.8047,9.0849,9.0849,0,0,1,5.9531-1.7265q5.609,0,7.9375,3.8437l-3.3594,2.625a5.6118,5.6118,0,0,0-2-1.9687,5.5265,5.5265,0,0,0-2.6406-.5938,4.9492,4.9492,0,0,0-2.4922.5547,1.8687,1.8687,0,0,0-.9609,1.7422,1.744,1.744,0,0,0,1,1.6016,14.4994,14.4994,0,0,0,3.4844,1.1171q1.3747.36,2.7187.7735a8.6194,8.6194,0,0,1,2.3985,1.1484A5.4621,5.4621,0,0,1,48.7891,42.5,6.3927,6.3927,0,0,1,49.43,45.5469Z" style="fill:#fff"/><rect x="298" y="10" width="62" height="62" style="fill:#c9b458"/><path d="M331.2031,34.2188V51.8125h-4.4062V34.2188h-6.6563V30.1875h17.7188v4.0313Z" style="fill:#fff"/><rect x="442" y="10" width="62" height="62" style="fill:#c9b458"/><path d="M465.9766,51.8125V30.1875h14.0468v3.8906h-9.6406v4.6094h8.125v3.9063h-8.125v5.1874h9.6406v4.0313Z" style="fill:#fff"/><rect x="154" y="10" width="62" height="62" style="fill:#c9b458"/><path d="M178.25,50.8125V29.1875h4.4062V46.7812H191.75v4.0313Z" style="fill:#fff"/><rect x="226" y="10" width="62" height="62" style="fill:#787c7e"/><path d="M246.9688,51.8125l7.1562-21.625h5.7344l7.1718,21.625h-4.5156l-1.4375-4.3906H252.75l-1.4062,4.3906ZM254,43.5625h5.8281l-2.9062-8.9375Z" style="fill:#fff"/><rect x="370" y="10" width="62" height="62" style="fill:#6aaa64"/><path d="M404.5547,51.8125l-5.5156-8.1875h-2.2344v8.1875h-4.4063V30.1875h7.8594q4.172,0,6.1016,1.5t1.93,4.9219a7.4791,7.4791,0,0,1-1.1641,4.4062,5.2038,5.2038,0,0,1-3.3047,2.0938l5.7813,8.7031ZM403.82,36.7969a2.5046,2.5046,0,0,0-.8359-2.2188,5.1113,5.1113,0,0,0-2.7578-.5625h-3.4219v5.7656h3.2344A7.176,7.176,0,0,0,402.32,39.5a2.0683,2.0683,0,0,0,1.1485-.875A3.692,3.692,0,0,0,403.82,36.7969Z" style="fill:#fff"/><rect x="82" y="10" width="62" height="62" style="fill:#787c7e"/><path d="M115.2109,43.5625v8.25h-4.4375V43.6562l-6.7656-13.4687H108.82l4.2188,9.0469,4.3125-9.0469h4.6406Z" style="fill:#fff"/><rect x="514" y="10" width="62" height="62" style="fill:#6aaa64"/><path d="M553.0547,51.8125h-4.5156l-3.625-14.2969-3.6407,14.2969H536.82l-5.4687-21.625h4.3906l3.4531,14.1094,3.5781-14.1094h4.3594l3.6094,14.2031,3.5469-14.2031h4.3593Z" style="fill:#fff"/></svg>